<svg xmlns="http://www.w3.org/2000/svg" viewBox="0 0 443.28 128.26"><defs><style>.cls-1{fill:#f39200;}.cls-2{fill:#fccb8d;}.cls-3{fill:#f8af4e;}.cls-4{fill:#1d1d1b;}.cls-5{fill:#fff;}</style></defs><title>Asset 1</title><g id="Layer_2" data-name="Layer 2"><g id="Layer_1-2" data-name="Layer 1"><path class="cls-1" d="M249.66,64.39c5-5.16,9.65-9,15.57-10.14s15.84.38,15.84.38,5.78.88,9.34-.27-3.34,3-3.34,3a51,51,0,0,1-9.26,4.17,79.66,79.66,0,0,1-14.33,3.06c-3.78.44-6.25-1.12-9.1-.2A6.54,6.54,0,0,1,249.66,64.39Z"/><path class="cls-2" d="M249.08,58.48c2.92-5.66,5.87-10,10.63-12s13.62-2,13.62-2,5.17,0,7.9-1.66-2.05,3.4-2.05,3.4a37.17,37.17,0,0,1-6.81,5.36A57.79,57.79,0,0,1,261,56.63c-3.12,1-5.64-.12-7.83,1.18A5.11,5.11,0,0,1,249.08,58.48Z"/><path class="cls-1" d="M246.73,50.68c-1.4-5.87-2-10.81.38-15s9-9.25,9-9.25,3.89-3,4.92-5.74.62,3.7.62,3.7A32.53,32.53,0,0,1,260,32.28a50.7,50.7,0,0,1-5.41,10.28c-1.73,2.51-4.35,3.11-5.17,5.32A4.64,4.64,0,0,1,246.73,50.68Z"/><path class="cls-2" d="M251.59,66.83c6-.31,10.94.06,14.35,3.23S272.55,81,272.55,81s1.85,4.51,4.26,6.08-3.72-.07-3.72-.07a29.08,29.08,0,0,1-7.15-3.25,45.13,45.13,0,0,1-8.52-7.44c-2-2.23-1.88-5-3.8-6.25A4.41,4.41,0,0,1,251.59,66.83Z"/><path class="cls-2" d="M246.6,52.36c1.45-7,3.29-12.8,7.67-16.93s13.55-8.21,13.55-8.21,5.35-2.37,7.73-5.25-1.18,4.36-1.18,4.36a50.35,50.35,0,0,1-5.56,8.5,79.85,79.85,0,0,1-10.43,10.29c-2.95,2.41-5.87,2.42-7.77,4.73A6.62,6.62,0,0,1,246.6,52.36Z"/><path class="cls-3" d="M249.83,63.68c7-1.49,13-2.11,18.58.25s12.95,9.13,12.95,9.13,4.31,4,7.91,5-4.47.67-4.47.67a50.42,50.42,0,0,1-10-1.69,78.53,78.53,0,0,1-13.61-5.43c-3.39-1.74-4.57-4.41-7.45-5.23A6.51,6.51,0,0,1,249.83,63.68Z"/><path class="cls-1" d="M232,42.87c-3.37-6.35-5.61-12-4.86-17.94S232.36,10,232.36,10,235,4.75,235,1s1.87,4.11,1.87,4.11A50.91,50.91,0,0,1,238,15.21a79.36,79.36,0,0,1-1.5,14.58c-.74,3.74-3,5.61-3,8.6A6.54,6.54,0,0,1,232,42.87Z"/><path class="cls-2" d="M226.19,41.61c-4.49-4.53-7.74-8.68-8.15-13.81s2.26-13.58,2.26-13.58,1.55-4.93.84-8,2.61,3,2.61,3a36.89,36.89,0,0,1,3,8.13,58.31,58.31,0,0,1,1.32,12.43c0,3.27-1.85,5.33-1.28,7.81A5.15,5.15,0,0,1,226.19,41.61Z"/><path class="cls-1" d="M218.05,41.44c-6-.47-10.89-1.45-14.14-5s-6-11.42-6-11.42-1.63-4.62-3.95-6.45,3.71.55,3.71.55a32.18,32.18,0,0,1,6.95,4.06,50.13,50.13,0,0,1,8.12,8.31c1.85,2.41,1.62,5.09,3.47,6.55A4.63,4.63,0,0,1,218.05,41.44Z"/><path class="cls-2" d="M234.91,41.78c1.56-5.83,3.42-10.38,7.49-12.66s12.41-2.93,12.41-2.93,4.86-.38,7.09-2.19-1.21,3.53-1.21,3.53a29,29,0,0,1-5.28,5.79,44.83,44.83,0,0,1-9.71,5.82c-2.72,1.2-5.33.26-7.12,1.7A4.37,4.37,0,0,1,234.91,41.78Z"/><path class="cls-2" d="M219.6,42.08c-6.26-3.54-11.16-7.06-13.75-12.51s-3.64-15.41-3.64-15.41-.61-5.82-2.62-9,3.78,2.46,3.78,2.46a50.28,50.28,0,0,1,6.38,7.9,79.34,79.34,0,0,1,6.59,13.09c1.38,3.55.5,6.33,2.11,8.86A6.58,6.58,0,0,1,219.6,42.08Z"/><path class="cls-3" d="M231.37,42.49c.74-7.15,2-13,5.95-17.61S250,15.37,250,15.37s5.08-2.89,7.16-6-.73,4.45-.73,4.45a51.33,51.33,0,0,1-4.69,9,79.46,79.46,0,0,1-9.35,11.28c-2.7,2.69-5.61,3-7.27,5.48A6.57,6.57,0,0,1,231.37,42.49Z"/><path class="cls-1" d="M209.62,48.15c-6.49,3.09-12.18,5.1-18.13,4.1s-14.72-5.85-14.72-5.85-5.11-2.83-8.85-3,4.19-1.69,4.19-1.69a50.65,50.65,0,0,1,10.13-.7,79.94,79.94,0,0,1,14.5,2.1c3.7.9,5.48,3.22,8.46,3.35A6.52,6.52,0,0,1,209.62,48.15Z"/><path class="cls-2" d="M208.12,53.89c-4.71,4.29-9,7.37-14.14,7.56s-13.48-2.82-13.48-2.82-4.86-1.76-8-1.18S175.62,55,175.62,55a37,37,0,0,1,8.24-2.67,58,58,0,0,1,12.48-.79c3.27.15,5.24,2.07,7.75,1.6A5.18,5.18,0,0,1,208.12,53.89Z"/><path class="cls-1" d="M207.61,62c-.72,6-1.91,10.82-5.55,13.92s-11.67,5.54-11.67,5.54-4.68,1.44-6.6,3.67.7-3.68.7-3.68a32.17,32.17,0,0,1,4.34-6.77,50.22,50.22,0,0,1,8.64-7.76c2.49-1.75,5.16-1.41,6.7-3.2A4.67,4.67,0,0,1,207.61,62Z"/><path class="cls-2" d="M208.31,60.49c-3.8,6.1-7.52,10.86-13.07,13.22s-15.55,3-15.55,3-5.84.37-9.07,2.25,2.62-3.69,2.62-3.69a50.52,50.52,0,0,1,8.16-6,79.12,79.12,0,0,1,13.35-6c3.61-1.24,6.35-.24,8.93-1.74A6.56,6.56,0,0,1,208.31,60.49Z"/><path class="cls-3" d="M212.76,45.92c-7.19.13-13.21-.41-18.2-3.78s-11-11.42-11-11.42-3.48-4.7-6.82-6.39,4.52.19,4.52.19a51,51,0,0,1,9.5,3.56A79.32,79.32,0,0,1,203.11,36c3,2.35,3.65,5.2,6.32,6.55A6.55,6.55,0,0,1,212.76,45.92Z"/><path class="cls-1" d="M227.75,85.47c4.4,5.69,7.57,10.83,7.85,16.85S233,118,233,118s-1.69,5.6-1.05,9.28-2.54-3.73-2.54-3.73a51.38,51.38,0,0,1-2.83-9.76,79.61,79.61,0,0,1-1-14.61c.1-3.82,2-6,1.49-9A6.57,6.57,0,0,1,227.75,85.47Z"/><path class="cls-2" d="M233.68,85.73c5.19,3.69,9.11,7.23,10.38,12.22s.09,13.77.09,13.77-.69,5.12.54,8-3.08-2.5-3.08-2.5a37.41,37.41,0,0,1-4.35-7.5,58.1,58.1,0,0,1-3.41-12c-.54-3.22.91-5.56-.07-7.91A5.13,5.13,0,0,1,233.68,85.73Z"/><path class="cls-1" d="M241.73,84.51c6-.57,11-.43,14.78,2.48s7.88,10.23,7.88,10.23,2.39,4.27,5,5.68-3.75.1-3.75.1a32.34,32.34,0,0,1-7.54-2.82,50.24,50.24,0,0,1-9.41-6.8c-2.24-2.07-2.47-4.74-4.55-5.87A4.67,4.67,0,0,1,241.73,84.51Z"/><path class="cls-2" d="M225.06,87c-.54,6-1.6,10.82-5.22,13.76s-11.73,5-11.73,5-4.73,1.2-6.62,3.36.6-3.68.6-3.68a29,29,0,0,1,4.22-6.61,45,45,0,0,1,8.56-7.39c2.49-1.64,5.22-1.16,6.73-2.88A4.43,4.43,0,0,1,225.06,87Z"/><path class="cls-2" d="M240.1,84.14c6.76,2.43,12.2,5.06,15.68,10S262,108.69,262,108.69s1.59,5.63,4.11,8.39S262,115.3,262,115.3a50.75,50.75,0,0,1-7.63-6.7,79.55,79.55,0,0,1-8.72-11.77c-2-3.27-1.57-6.16-3.59-8.37A6.54,6.54,0,0,1,240.1,84.14Z"/><path class="cls-3" d="M228.43,85.74c.48,7.17.25,13.21-2.86,18.36s-10.87,11.53-10.87,11.53-4.51,3.72-6,7.13,0-4.51,0-4.51a50.67,50.67,0,0,1,3.08-9.68A79.23,79.23,0,0,1,219,95.86c2.2-3.11,5-3.9,6.23-6.63A6.54,6.54,0,0,1,228.43,85.74Z"/><path class="cls-2" d="M211.4,77.23c-2.11,5.67-4.39,10-8.66,11.9s-12.63,1.74-12.63,1.74-4.88-.08-7.27,1.5S184.38,89,184.38,89a29.1,29.1,0,0,1,5.81-5.27,45.32,45.32,0,0,1,10.21-4.87c2.83-.93,5.34.25,7.25-1A4.41,4.41,0,0,1,211.4,77.23Z"/><path class="cls-3" d="M221,85.36c-3.65,6.2-7.25,11-12.74,13.54s-15.48,3.37-15.48,3.37-5.82.52-9,2.47,2.53-3.74,2.53-3.74a50.7,50.7,0,0,1,8-6.24,79.13,79.13,0,0,1,13.2-6.36c3.57-1.33,6.34-.39,8.89-2A6.6,6.6,0,0,1,221,85.36Z"/><path class="cls-1" d="M248.37,77.13c6-.31,10.93.06,14.35,3.23s6.6,10.91,6.6,10.91,1.86,4.51,4.27,6.08-3.73-.07-3.73-.07A29.1,29.1,0,0,1,262.72,94a44.82,44.82,0,0,1-8.52-7.44c-2-2.23-1.88-5-3.81-6.25A4.42,4.42,0,0,1,248.37,77.13Z"/><path class="cls-1" d="M248.74,65.05A19.76,19.76,0,1,1,229,45.3,19.76,19.76,0,0,1,248.74,65.05Z"/><path class="cls-4" d="M9.7,75.86a21.71,21.71,0,0,0-1.78,5.22,1.07,1.07,0,0,0,.33.88,3.93,3.93,0,0,0,1.7.42l2.55.3v1.67c-1.7-.13-3.62-.2-5.75-.2-2.57,0-4.81.07-6.75.2V82.68l.8,0a5.89,5.89,0,0,0,2.41-.39,3.85,3.85,0,0,0,1.17-1.63q1.89-3.84,3.86-8.29l7.34-16.59q2.94-6.6,4-9.58h1.77l13.5,31.34a30.34,30.34,0,0,0,1.82,3.85,2.73,2.73,0,0,0,1,.93,8.62,8.62,0,0,0,2.65.39v1.67c-2.31-.13-4.52-.2-6.61-.2s-4.56.07-7.81.2V82.68l2.64-.16a4.55,4.55,0,0,0,1.68-.3.89.89,0,0,0,.4-.74,10.81,10.81,0,0,0-.8-2.51L19.22,53.42Z"/><path class="cls-4" d="M53.28,48.92q-.28,4-.29,8.41V72.49q0,8.46.42,9.32c.28.58,1.28.87,3,.87h2v1.67q-4.69-.19-7.95-.2t-7.89.2V82.68h2.21a3.75,3.75,0,0,0,2.28-.47,2.75,2.75,0,0,0,.65-1.82c.18-2.08.27-4.75.27-8V57.17q0-4.5-.18-8.25h-2.7c-4.36,0-6.76.11-7.19.31s-.74,1-.88,2.4l-.37,3.59H35L35,52c0-1.28-.11-3.14-.35-5.56,9.58.13,15.2.2,16.89.2l14.7-.2q-.51,4.55-.59,8.76H64l-.27-3.51a5,5,0,0,0-.45-2.16,2,2,0,0,0-1.3-.41q-2.93-.22-6.64-.22Z"/><path class="cls-4" d="M78,66.27v6.58l0,3.79c0,2.36,0,4.09.08,5.18q3.87.29,8.3.29a38.75,38.75,0,0,0,5-.26,13,13,0,0,0,2.76-.69c.44-1.56.89-3.5,1.36-5.84h1.77A73.73,73.73,0,0,0,96.54,83l0,1.18c-2,.2-4,.29-6,.29l-4.16-.08c-4.6-.14-8-.21-10.13-.21s-4.82.06-8.25.2V82.7h.82a5.78,5.78,0,0,0,2.91-.45,3.15,3.15,0,0,0,.79-2.13c.14-1.12.2-3.58.2-7.4V58.1c0-2.4,0-4.36-.17-5.89a11.5,11.5,0,0,0-.37-2.73,1.53,1.53,0,0,0-.57-.68,7.05,7.05,0,0,0-2.27-.42l-2-.22V46.49h2.86l2.81.1c1.57.06,2.77.1,3.58.1l10.17-.17,4.83,0a49.24,49.24,0,0,1,5,.2,28.81,28.81,0,0,0-1.08,8.07H93.73a32.49,32.49,0,0,0-.29-4.84,22.18,22.18,0,0,0-7.71-1.17q-3.65,0-7.63.32c0,1.68,0,3.35-.06,5L78,58.2v5.41c1.76.13,3.31.2,4.67.2q6.34,0,7.18-.44c.56-.3.84-1.21.84-2.74V58.89h1.77c-.12,2.68-.18,4.83-.18,6.43s.06,3.68.18,6H90.68V69.75c0-1.69-.33-2.73-1-3.11s-3-.57-7.05-.57C81.14,66.07,79.59,66.14,78,66.27Z"/><path class="cls-4" d="M109.68,81.75c1.74.09,3.43.14,5.08.14q5,0,7.84-.27a27.35,27.35,0,0,0,4.07-.77l1.6-6.24H130q-.7,5-1.09,9.35a40.83,40.83,0,0,1-6.52.41l-12.61-.22q-2.55,0-7.93.2V83a4.29,4.29,0,0,0,2.48-2q.38-1.07.38-8.42V57.94c0-5.31-.13-8.28-.39-8.89s-1-.91-2.15-.91H99.24V46.46q6.32.2,8.38.2,2.75,0,7.47-.2v1.68h-3.28q-1.4,0-1.77.81t-.36,6.75v17l.08,7.51Z"/><path class="cls-4" d="M131.52,82.68h1.67c1.64,0,2.63-.4,3-1.2s.49-4.63.49-11.48V61q0-10.65-.43-11.74c-.28-.73-1.13-1.09-2.54-1.09h-2.15V46.46c2.95.13,5.85.2,8.73.2q3.6,0,6.52-.2v1.68h-2.05a3.93,3.93,0,0,0-2.37.45,3.66,3.66,0,0,0-.56,2.29q-.14,2.85-.13,10.15v9.18q0,10.37.45,11.41c.3.7,1.27,1.06,2.9,1.06h1.76v1.67q-3.27-.19-7.13-.2-4.5,0-8.12.2Z"/><path class="cls-4" d="M159,66.27v6.58l0,3.79c0,2.36,0,4.09.08,5.18q3.87.29,8.31.29a38.86,38.86,0,0,0,5-.26,13.25,13.25,0,0,0,2.76-.69c.44-1.56.89-3.5,1.35-5.84h1.77a76.76,76.76,0,0,0-.74,7.68l0,1.18c-2,.2-4,.29-6,.29l-4.16-.08q-6.9-.21-10.14-.21c-2.07,0-4.82.06-8.25.2V82.7h.83a5.76,5.76,0,0,0,2.9-.45,3.14,3.14,0,0,0,.8-2.13c.13-1.12.2-3.58.2-7.4V58.1q0-3.6-.17-5.89a12.78,12.78,0,0,0-.37-2.73,1.59,1.59,0,0,0-.57-.68,7.12,7.12,0,0,0-2.27-.42l-2-.22V46.49h2.87l2.81.1c1.57.06,2.76.1,3.57.1l10.18-.17,4.82,0a49.24,49.24,0,0,1,5,.2,29.58,29.58,0,0,0-1.08,8.07h-1.77a33.9,33.9,0,0,0-.29-4.84,22.28,22.28,0,0,0-7.72-1.17q-3.65,0-7.63.32c0,1.68,0,3.35-.05,5L159,58.2v5.41c1.76.13,3.32.2,4.67.2q6.35,0,7.19-.44c.56-.3.84-1.21.84-2.74V58.89h1.77c-.13,2.68-.19,4.83-.19,6.43s.06,3.68.19,6H171.7V69.75c0-1.69-.34-2.73-1-3.11s-3-.57-7.06-.57C162.15,66.07,160.6,66.14,159,66.27Z"/><path class="cls-4" d="M199.87,65.12q2.61,3.76,6.47,8.74l5.12,6.63a9.7,9.7,0,0,0,1.81,2,2,2,0,0,0,.93.24h.7v1.67c-1.48-.13-2.77-.2-3.87-.2a27.72,27.72,0,0,0-3.19.2L198.4,71.62q-2.64-3.51-5.65-6.87l.27-.9c1,.09,1.8.13,2.31.13a10.08,10.08,0,0,0,7-2.28,7.83,7.83,0,0,0,2.53-6.1,6.79,6.79,0,0,0-2.14-5.34,8.9,8.9,0,0,0-6.17-1.93,17,17,0,0,0-5.64,1q-.32,4.23-.32,9V71.23c0,6.26.15,9.74.45,10.42s1.27,1,2.9,1H196v1.67c-2.93-.13-5.37-.2-7.29-.2q-2.29,0-8.26.2V82.68h2c1.52,0,2.42-.34,2.71-1s.42-4.17.42-10.51V58.36q0-8.25-.49-9.24c-.33-.66-1.39-1-3.19-1h-1.44V46.46q5,.2,7.57.2c1.18,0,2.86,0,5.07-.15q3.84-.15,5.52-.15a19.3,19.3,0,0,1,7,1,7.31,7.31,0,0,1,4.87,7.2,9.39,9.39,0,0,1-2.72,6.64A14.54,14.54,0,0,1,199.87,65.12Z"/><path class="cls-4" d="M273.37,65.93q0-8.73,5.64-14.08t15-5.34q9.21,0,14.44,5t5.22,13.16a19.89,19.89,0,0,1-6.06,14.8,21,21,0,0,1-15.31,5.95,20.05,20.05,0,0,1-9.95-2.33,16.73,16.73,0,0,1-6.6-6.83A21.39,21.39,0,0,1,273.37,65.93Zm5.41-2.18a24.79,24.79,0,0,0,2.06,10.47,15.37,15.37,0,0,0,5.52,6.68,14.33,14.33,0,0,0,7.91,2.22,13.53,13.53,0,0,0,7.21-1.89,12.78,12.78,0,0,0,4.86-5.64,21.4,21.4,0,0,0,1.77-9.12,21.88,21.88,0,0,0-2-9.65,13.86,13.86,0,0,0-5.36-6,15.48,15.48,0,0,0-8.06-2,14.45,14.45,0,0,0-7.35,1.78,12.29,12.29,0,0,0-4.84,5.23A17.16,17.16,0,0,0,278.78,63.75Z"/><path class="cls-4" d="M327.58,66.09q1.62-2.45,5.11-8.51L338.76,47h4.13v.66a92.62,92.62,0,0,0-7.95,11c-3.13,4.9-5,8.17-5.63,9.84A19.37,19.37,0,0,0,329,73q0,4.83.24,7.66c.1,1,.28,1.62.53,1.82a7,7,0,0,0,2.67.52l2,.22v1.67q-4.59-.19-7.17-.2l-8.48.2V83.22H321c1.5,0,2.4-.31,2.7-.94s.45-3.43.45-8.43c0-1.45,0-3-.1-4.77-2.29-4.2-4.41-7.82-6.35-10.89a47.58,47.58,0,0,0-4.91-6.72,6.85,6.85,0,0,0-1.9-1.53,7.09,7.09,0,0,0-2.73-.38V47.89l4.29-.92,2.1-.46a5.92,5.92,0,0,1,2,1.15,33.19,33.19,0,0,1,4.07,5.74Q322.73,56.85,327.58,66.09Z"/><path class="cls-4" d="M410.69,72.33a25.19,25.19,0,0,0-.4,4.53,43.59,43.59,0,0,0,.39,5.48,45,45,0,0,1-8,2.21,46.94,46.94,0,0,1-8.53.83,23.74,23.74,0,0,1-11-2.45,17.6,17.6,0,0,1-7.3-6.83,19.25,19.25,0,0,1-2.55-9.93A19.21,19.21,0,0,1,376,56a18.53,18.53,0,0,1,7.64-7,27.21,27.21,0,0,1,12.39-2.49,37.78,37.78,0,0,1,5.64.4,55.29,55.29,0,0,1,6.73,1.59l2.26.61a51.13,51.13,0,0,0-1.08,7.83h-1.68V55.19c0-1.73-.14-2.74-.42-3A13.23,13.23,0,0,0,403.26,50a23,23,0,0,0-7.85-1.25q-7.83,0-12,4.2-4.53,4.58-4.53,12.1A18.53,18.53,0,0,0,383,77.27q4.8,5.85,13.08,5.85a26.54,26.54,0,0,0,9.35-1.9c.11-1.49.16-3.08.16-4.77a30.55,30.55,0,0,0-.11-3.77.86.86,0,0,0-.38-.64,15.21,15.21,0,0,0-2.77-.37l-3.13-.26V69.74q6.06.2,9,.19a42.19,42.19,0,0,0,4.37-.19v1.38Z"/><path class="cls-4" d="M424,66.81v6.58l0,3.79c0,2.36,0,4.09.08,5.18q3.87.3,8.3.3a38.54,38.54,0,0,0,5-.27,13,13,0,0,0,2.76-.69q.66-2.34,1.36-5.83h1.77a73.38,73.38,0,0,0-.74,7.67l0,1.18c-2,.2-4,.3-6,.3l-4.17-.09q-6.9-.21-10.13-.21t-8.25.2V83.25h.82a5.63,5.63,0,0,0,2.91-.46,3.15,3.15,0,0,0,.79-2.13c.14-1.12.2-3.58.2-7.4V58.64c0-2.4,0-4.36-.17-5.89a11.48,11.48,0,0,0-.37-2.72,1.48,1.48,0,0,0-.57-.68,6.94,6.94,0,0,0-2.27-.43l-2-.21V47h2.86l2.81.1c1.57.07,2.77.1,3.58.1l10.18-.17,4.82,0a49.24,49.24,0,0,1,5,.2,29.3,29.3,0,0,0-1.08,8.07h-1.78a32.58,32.58,0,0,0-.29-4.84,22.2,22.2,0,0,0-7.71-1.16c-2.43,0-5,.1-7.63.32,0,1.67,0,3.34-.06,5L424,58.74v5.42c1.76.13,3.31.19,4.67.19q6.34,0,7.18-.44c.56-.29.84-1.21.84-2.74V59.43h1.77q-.18,4-.18,6.43t.18,6h-1.77V70.29c0-1.69-.33-2.73-1-3.11s-3-.56-7.05-.56C427.14,66.62,425.59,66.68,424,66.81Z"/><path class="cls-4" d="M259.74,85.38q-1.2-3.57-2.45-6.69l-9.5-23.87a61.1,61.1,0,0,0-2.4-5.66q-.34-.48-2.28-.48H242V47q4.13.2,7,.19,3,0,7.31-.19v1.67h-2.61a3.74,3.74,0,0,0-1.73.25.87.87,0,0,0-.39.8,3,3,0,0,0,.12.78l3.41,9.23,7.29,18.65,7.09-17.79Q273,51.77,273,50.26c0-.81-.48-1.23-1.46-1.27l-1.08-.08-2.29-.23V47c2.36.13,4.29.19,5.81.19s3.59-.06,6-.19v1.67h-1.07a2.48,2.48,0,0,0-1.85.6,19.85,19.85,0,0,0-2,4.26l-9,21.95a101.23,101.23,0,0,0-3.59,9.89Z"/><path class="cls-5" d="M222.47,52.43V72.16h-1.82V69.72a7.66,7.66,0,0,1-2.58,2.09,7.05,7.05,0,0,1-3.14.7,7,7,0,0,1-5.17-2.19A7.27,7.27,0,0,1,207.62,65a7.15,7.15,0,0,1,2.16-5.23A7.06,7.06,0,0,1,215,57.6a6.84,6.84,0,0,1,3.18.74,7.22,7.22,0,0,1,2.49,2.24V52.43Zm-7.35,6.94a5.54,5.54,0,0,0-4.87,2.85,5.75,5.75,0,0,0,0,5.73,5.53,5.53,0,0,0,2.06,2.12,5.42,5.42,0,0,0,2.79.76,5.78,5.78,0,0,0,2.85-.75A5.28,5.28,0,0,0,220,68a5.87,5.87,0,0,0,.72-2.91A5.66,5.66,0,0,0,219.13,61,5.42,5.42,0,0,0,215.12,59.37Z"/><path class="cls-5" d="M226.35,57.94h1.82v6.64a13.9,13.9,0,0,0,.26,3.34A3.77,3.77,0,0,0,230,70a4.75,4.75,0,0,0,2.69.76,4.58,4.58,0,0,0,2.64-.74,3.72,3.72,0,0,0,1.5-1.94,13.27,13.27,0,0,0,.28-3.48V57.94h1.82v7a11,11,0,0,1-.69,4.43,5.21,5.21,0,0,1-2.08,2.32,7.61,7.61,0,0,1-7,0A5.17,5.17,0,0,1,227,69.32a11.44,11.44,0,0,1-.69-4.54Z"/><path class="cls-4" d="M346.08,76.65a21.47,21.47,0,0,0-1.79,5.22,1.07,1.07,0,0,0,.33.88,4,4,0,0,0,1.7.43l2.55.29v1.67c-1.7-.13-3.62-.19-5.75-.19q-3.84,0-6.75.19V83.47l.8,0a5.83,5.83,0,0,0,2.42-.38,3.91,3.91,0,0,0,1.16-1.64q1.89-3.84,3.87-8.28L352,56.55q2.94-6.6,4-9.59h1.77l13.5,31.34A29.6,29.6,0,0,0,373,82.15a2.53,2.53,0,0,0,1,.93,8.47,8.47,0,0,0,2.64.39v1.67c-2.31-.13-4.52-.19-6.61-.19s-4.56.06-7.81.19V83.47l2.64-.16a4.89,4.89,0,0,0,1.68-.29.92.92,0,0,0,.4-.75,10.79,10.79,0,0,0-.8-2.5L355.59,54.21Zm16.21-6.47-6.7-16"/><path class="cls-1" d="M23.18,71.68a4.47,4.47,0,1,1-4.47-4.46A4.47,4.47,0,0,1,23.18,71.68Z"/><path class="cls-1" d="M359.59,72.19a4.46,4.46,0,1,1-4.46-4.47A4.46,4.46,0,0,1,359.59,72.19Z"/></g></g></svg>